<?xml version="1.0" encoding="UTF-8"?>
<svg id="Layer_2" data-name="Layer 2" xmlns="http://www.w3.org/2000/svg" viewBox="0 0 594.92 909.05">
  <defs>
    <style>
      .cls-1 {
        fill: #00ab67;
        stroke-width: 0px;
      }
    </style>
  </defs>
  <g id="Layer_1-2" data-name="Layer 1">
    <g id="Absher_Ind" data-name="Absher Ind">
      <g>
        <path class="cls-1" d="M489.15,838.49c0-19.29-15.63-34.92-34.92-34.92s-34.92,15.63-34.92,34.92,15.63,34.92,34.92,34.92,34.92-15.63,34.92-34.92"/>
        <path class="cls-1" d="M384.9,209.24c0-19.32-15.66-34.99-34.99-34.99s-34.99,15.67-34.99,34.99,15.66,34.99,34.99,34.99,34.99-15.67,34.99-34.99"/>
        <path class="cls-1" d="M279.93,209.24c0-19.32-15.66-34.99-34.99-34.99s-34.99,15.67-34.99,34.99,15.66,34.99,34.99,34.99,34.99-15.67,34.99-34.99"/>
        <path class="cls-1" d="M174.96,209.24c0-19.32-15.66-34.99-34.99-34.99s-35,15.67-35,34.99,15.67,34.99,35,34.99,34.99-15.67,34.99-34.99"/>
        <path class="cls-1" d="M524.86,69.98c0-38.65,31.33-69.98,69.98-69.98v69.98h-69.98Z"/>
        <path class="cls-1" d="M130.46,279.22c-.17,0-.34.02-.5.02-13.78.26-24.89,11.16-24.97,24.62,0,.05,0,.1,0,.16v465.06h44.49c.17,0,.34-.02.5-.02,13.79-.26,24.89-11.16,24.98-24.63,0-.05,0-.1,0-.15v-465.07h-44.49Z"/>
        <path class="cls-1" d="M235.43,279.22c-.17,0-.34.02-.5.02-13.79.26-24.89,11.16-24.97,24.62,0,.05,0,.1,0,.16v465.06h44.5c.17,0,.33-.02.5-.02,13.78-.26,24.89-11.17,24.98-24.63,0-.05,0-.1,0-.15v-465.07h-44.49Z"/>
        <path class="cls-1" d="M340.41,279.22c-.17,0-.33.02-.5.02-13.79.27-24.89,11.17-24.98,24.62,0,.05,0,.1,0,.16v465.06h44.49c.17,0,.33-.02.5-.02,13.79-.26,24.89-11.17,24.98-24.63,0-.05,0-.1,0-.15v-465.07h-44.49Z"/>
        <path class="cls-1" d="M445.38,174.25c-.17,0-.33.02-.49.02-13.58.27-24.54,11.4-24.95,25.26,0,.27-.04.54-.04.81v568.75h44.49c.17,0,.33-.02.49-.03,13.58-.26,24.54-11.4,24.96-25.26,0-.27.04-.54.04-.81V174.25h-44.49Z"/>
        <path class="cls-1" d="M550.43,104.94c-.16,0-.33.02-.49.02-13.55.27-24.5,11.42-24.95,25.34,0,.3-.04.59-.04.9v637.92h44.49c.17,0,.32-.02.49-.03,13.55-.26,24.49-11.42,24.95-25.34,0-.3.04-.59.04-.89V104.94h-44.49Z"/>
        <path class="cls-1" d="M25.49,279.22c-.16,0-.32.02-.48.03h0c-13.59.27-24.55,11.39-24.96,25.23H.04c0,.27-.04.53-.04.8v603.77h44.49c.16,0,.32-.02.48-.03h0c13.58-.27,24.55-11.39,24.96-25.24h0c0-.27.04-.53.04-.79V279.22H25.49Z"/>
      </g>
    </g>
  </g>
</svg>