<?xml version="1.0" encoding="UTF-8"?>
<svg id="Layer_1" data-name="Layer 1" xmlns="http://www.w3.org/2000/svg" viewBox="0 0 812.92 811.49">
  <defs>
    <style>
      .cls-1 {
        fill: #108e45;
        stroke-width: 0px;
      }
    </style>
  </defs>
  <path class="cls-1" d="M373.1,1.36c134.15-10.49,233.9,41.34,303.3,102.52,68.95,60.8,126.5,150.49,135.27,269.12,9.93,134.21-40.89,233.12-102.52,303.3-63.08,71.83-151.39,124.53-270.54,133.85-129.45,10.13-230.08-38.21-301.87-101.1C64.5,645.78,11.5,562.88,1.46,439.93c-10.72-131.22,39.28-234.25,99.68-303.3C161.05,68.13,250.29,10.96,373.1,1.36ZM226.44,68.28c-42.91,23.4-77.91,52.08-106.79,84.01C61.05,217.08,15.71,309.73,25.66,437.08c8.88,113.6,58.81,192.84,126.73,253.46,64.97,57.99,159.99,104.52,283.36,95.4,113.12-8.36,195.51-58.5,254.89-125.3,58.92-66.29,105.42-160.79,96.82-284.79-7.98-115.11-63.13-196.4-126.73-253.46-64.54-57.91-159.22-106.11-284.79-96.83-55.48,4.1-109.31,20.79-149.52,42.72Z"/>
  <g>
    <path class="cls-1" d="M411.55,51.19c.82,2.98,3.53,4.06,2.84,8.55,7.74-1.91,17.13-8,19.94,2.85-3.48,1.27-6.18,3.32-11.39,2.85-1.42,10.45-14.66,9.07-14.24,21.36,9.52-2.14,18.58-23.78,38.45-15.66,1.47,6.69-6.65,3.79-5.7,9.97,5.69,3.33,17.17.87,18.51,8.55-15.73,4.21-34.5,5.36-46.99,12.81,12.31,1.37,50.08-9.29,52.68,9.97-6.98.33-10.78-2.51-18.51-1.43,1.79,9.13,13.97,7.87,14.24,18.51-11.48-4.66-26.95-5.32-35.6-12.82,4.08,12.05,19.14,13.13,19.94,28.48-10.81-.74-17.78-17.23-29.9-21.36,5.01,11.61,14.35,18.87,15.66,34.17-7.91.79-9.99-4.25-9.97-11.39-4.5-4.52-11.36-6.68-12.82-14.24-.49,7.63,6.11,20.45,4.27,34.18-1.68-1.64-5.03-1.61-8.54-1.43,2.81,28.51,6.33,56.32,9.97,84.01,7.03,1.99,16.65,1.39,25.63,1.42.06,10.08-6.65,12.5-15.67,9.97-3.33.46-1.38,6.21-4.27,7.12-5.38,3.09-6.91-1.35-11.39-2.85-4.02.26-1.77,6.77-7.12,5.7-6.17-5.65-15.94-7.65-21.36-1.43-5.54-2.53-10.49-5.65-11.39-12.82,6.77-1.29,12.9-3.23,21.36-2.85,9.33-7.28-.12-33.35,7.12-42.72-8.05-12.04,11.48-44.8-12.82-44.14-5.21-10.02-.89-23.6,0-35.6-7.41,6.35-5.01,22.52-15.66,25.63v-14.24c-6.73-1.91-8.09,8.9-11.39,5.7v-14.24c-6.25-1.5-4.68,4.81-9.97,4.27-.23-15.41,13.04-17.34,19.94-25.63-15,4.46-23.17,15.75-32.75,25.63-12.14-9.34,8.8-17.36,9.97-27.05-4.45-1.73-17.86,6.38-24.21,2.85,7.49-11.75,26.69-16.9,45.56-12.81-8.96-7.65-25.59-7.64-32.75-17.09,15.43-8.64,33.59,4.28,44.14,9.97-4.19-10.53-26.23-15.53-31.32-29.9,21.31-2.33,26.95,11.02,37.02,19.93,1.21-10.72-12.79-18.51-18.51-27.06,4.87-4.59,23-7.31,27.06,0,4.83-3.71,9.44-7.64,19.94-5.7Z"/>
    <path class="cls-1" d="M543.97,244.85c-56.34,9.16-99.95,31.05-129.58,66.93,4.75,9.02,10.8,16.73,21.36,19.93,7.85,1.2,3.34-9.96,12.82-7.12,1.84,7.06-3.44,7-2.84,12.82,11.94,13.53,37.81-9.28,41.29,7.12,1.99,9.39-10.44,15.8-19.94,17.09-22,2.98-31.51-14.1-46.99-4.27-2.09-7.79,3.63-7.76,5.7-11.39-6.32-8.4-13.83-15.59-22.78-21.36-9.68,4.09-16.1,11.43-21.36,19.94-3.85,5.38,9.8,6.83,4.27,14.24-8.04,1.87-6.7-5.64-12.82-5.7-12.68,8.4-37.89,17.13-49.84,2.85v-11.39c9.68-11.42,29.16,7.96,39.87-4.27-.43-6.06-8.52-6.04-4.28-12.82,6.64-1.42,6.28,4.16,9.97,5.7,8.48-4.81,15.22-11.36,21.36-18.51-28.11-32.17-67.99-52.57-122.46-58.38,47.85-23.75,104.58,20.32,133.85,44.14,37.04-26.98,75.68-72.13,142.39-55.53ZM417.25,327.44c-1.52-5.6-5.57-8.67-11.4-9.97,1.36,5.76,6.62,7.62,11.4,9.97ZM459.96,354.49c6.19-2.83,16.79-1.25,18.51-8.54-4.26-5.52-16.18,2.95-18.51,8.54ZM328.96,353.07c4.76-4.1,16.15,2.16,17.09-2.84-5.14-3.09-21.19-8.16-17.09,2.84Z"/>
  </g>
  <path class="cls-1" d="M262.04,400.06h64.08c17.45,22.74,40.96,45.04,78.32,45.57,37.41.53,63.65-20.56,79.74-45.57h65.5c-18.94,106.81-177.08,139.86-253.46,62.66-15.37-15.54-26.02-35.58-32.75-58.38-.75-1.15-1.48-2.31-1.42-4.28ZM318.99,422.84h7.12v-7.12c-4.09-.18-6.76-1.78-5.7-7.12-4.03,1.18-3.69-2-7.12-1.43-2.94,10.06,7.74,6.5,5.7,15.67ZM504.1,410.03c-1.95,4.91,2.91,13.74,9.97,14.24,5.31,1.51,4.6-3,7.12-4.27,4.96,6.67-2.98,15.73,0,19.94,17.03-10.39,2.41-36.57-17.09-29.9ZM290.52,432.81c5.73.92,15.14-1.85,18.51,1.42-.08,4.67-4.05,5.44-2.85,11.39,13.59,11.57,23.42,26.88,45.57,29.9,3.89,8.99,18.41,9.82,29.9,7.12,6.84,2.19,13,4.16,14.24-4.28-11.61.16-24.97-24.3-32.75-5.7,5.64-.42,8.7,1.74,11.39,4.27-22.98.13-14.28-16.36-8.55-29.9-11.14,1.2-8.24,16.44-15.66,21.36-3.95-5.03-17.71-4.76-12.82-14.24-12.04,3.26-16.17-7.98-22.78-14.24-.15-4.42,4.48-4.07,2.84-9.97-5.43-5.45-16.72,1.24-19.93-4.27.15-6.5,7.48-5.81,8.54-11.39-8.47,2.6-18.84,8.77-15.66,18.51ZM485.59,417.15v7.12h7.12c-.86-2.93,2.29-9.89-2.85-8.54-.24,1.66-2.25,1.55-4.27,1.43ZM502.68,448.47c-2.67-13.46-14.75-17.52-24.21-24.21,1.87,14.27,16.03,16.25,24.21,24.21ZM495.56,425.69c-.67,4.47,3.84,3.76,4.28,7.12,3.34-.45,5.34-2.25,9.97-1.43,3.35,8.4-.32,14.94-2.85,21.36,21.06-2.82,7.98-36.51-11.39-27.06ZM454.26,451.32c9.64,2.52,6.08-8.16,15.67-5.7v-7.12h-7.12c.97,8.09-10.75,3.49-8.55,12.82ZM482.75,449.9c4.03.24,9.77-1.22,9.97,2.85,1.52,9.59-3.57,12.57-5.7,18.51,5.87-.78,8.83-4.46,12.82-7.12.83-14.59-5.65-21.88-18.51-22.79-3.14,3.01,1.83,4.21,1.43,8.55ZM459.96,479.8c-.75-13.49-4.73-23.74-11.39-31.33-1.41,13.07,3.04,24.28,11.39,31.33ZM468.51,471.25c11.7,1.04,13.89-7.64,11.39-17.09-3.41-2.29-6.7-4.68-12.82-4.27-3.05,5.61-1.4,17.07,1.43,21.36ZM444.3,475.53c-6.36,1.23-11.66,3.53-18.51,4.27-3-5.07-2.96-13.18-7.12-17.09-4.33,5.84-1.01,9.93,0,17.09-2.74,2.32-11.92,2.46-12.82-1.43-2.09,2.07-2.09,9.32,0,11.39,17.9-2.97,27.36-.57,44.14-7.12,2.39-13.16-7.94-16.83-4.27-27.06-5.38.63-6.69-2.81-9.97-4.27-4.9,11.05,7.98,14.13,8.55,24.21ZM373.1,455.59c-.75,7.94,6.12,7.81,9.97,4.27-.04-5.94-5.54-6.41-9.97-4.27ZM398.74,489.76c5.01-4.71,7.16-26.7,1.42-32.75-5.23,6.51-3.39,22.02-1.42,32.75ZM320.42,472.68c4.26-6.41-6.66-8-7.12-14.24h-7.12c2.8,6.69,5.71,13.28,14.24,14.24Z"/>
  <path class="cls-1" d="M468.51,458.44h5.7c1.66,4.94-7.96,6.62-5.7,0Z"/>
  <path class="cls-1" d="M747.6,468.41c-11.42,18.96-37.7,35.4-62.65,45.56-1.74,5.38-6.2,8.04-5.7,15.67,18.84-6.33,40.31-22.35,64.08-28.48-16.84,29.21-67.04,25.05-81.17,56.96,21.9-.89,39.52-18.38,65.5-19.94-15.27,29.83-73.2,16.98-86.86,48.41,23.31.83,48.5-15.86,74.04-12.82-14.43,8.34-32.73,19.09-55.53,22.78-22.31,3.62-40.06,1.43-46.99,19.94,21.23,1.22,46.97-5.19,74.04-2.84-22.97,23.83-92.43,1.74-108.21,29.9,22.97,5.04,52.35,3.65,75.47,8.55-34.09,21.38-95.39-13.14-116.77,15.66,26.18,7.05,62.43,4.03,84.01,15.67-44.02,14.29-88.85-18.2-122.46-1.43,20.04,16.03,53.36,18.79,68.35,39.87-8.24,9.79-24.46,11.61-35.6,18.51-27.5-20.11-60.32-44.19-105.37-45.56-53.49-1.63-93.3,24.43-122.46,51.26-14.25-3.78-28.34-7.72-38.45-15.66,16.91-18.69,41.23-29.97,65.5-41.29-20.3-14.52-53.26,6.63-89.71,8.54-11.49.6-24.12-.17-34.18-1.42,21.06-14.06,58.5-11.76,85.44-19.94-27.9-27.58-82.68,5.9-123.88-11.39,17.51-12.39,54.15-5.65,79.74-9.96-14.62-27.75-90.03-1.94-113.91-27.06,24.15-6.29,56.24,2.06,81.16,4.27-14.3-35.07-83.16-15.56-106.79-41.29,25.97-3.33,49.95,5.49,72.62,9.97-1.38-9.07-9.41-11.47-14.24-17.09-31.01-3.17-55.46-12.89-76.89-25.63,26.47-4.15,47.34,9.61,68.35,15.66-15.36-29.25-62.88-26.35-82.59-51.26,25.03-1.3,43.53,16.28,64.08,24.21-7.83-31.57-59.21-31.92-74.04-61.23,25.63,4.75,39.05,21.71,59.81,31.33-9.55-33.65-51.84-34.56-66.93-62.66,21.84.94,35.47,22.43,52.68,32.75,2.26-20.79-20.6-26.28-32.75-37.02-10.57-9.35-17-20.44-22.78-32.75,20.95,8.48,30.38,28.47,48.41,39.87-2.11-35.95-41.56-44.71-48.41-78.32,18.74,9.27,27.11,28.9,41.29,42.72,5.06-39.23-33.42-47.27-37.02-82.59,19.7,6.88,21.77,31.39,35.6,44.14,5.98-36.84-25.3-48.74-24.21-85.44,15.77,9.86,16.58,34.68,27.06,49.84,12.04-33.96-17.2-49.79-11.39-86.86,10.74,12.05,11.53,34.03,17.09,51.26,16.23-23.21-6.49-50.45,0-85.44,7.12,12.34,8.68,30.25,8.54,49.84,23.27-13.01-1.92-52.39,9.97-78.32,7.67,8.94,4.86,28.37,7.12,42.72,18.07-4.72,4.29-53.62,14.24-71.2,8.29,11.16,1.93,29.62,1.43,44.14,23.86-6.99,7.95-53.76,25.63-66.93,1.37,16.09-4.03,25.4-4.27,39.87,20.17-5.46,11.46-52.14,31.33-62.65-1.26,14.88-7.57,24.7-9.97,38.45,21.88-1.39,21.28-37.57,32.75-54.11,4.36,9.14-3.08,18.73-4.27,27.05,21.41-1.86,27.07-31.78,38.45-48.41,3.44,9.16-6.27,17.44-7.12,27.06,17.07.45,26.88-18.68,48.41-18.51-13.91,17.89-46.57,17.03-59.81,35.6,9.94,3.82,28.36-.83,32.75,8.54-20.32,5.87-53.07-8.74-58.38,12.81,7.36,2.84,25.1-3.05,34.17,1.43-16.9,11.58-58.42-1.47-61.23,24.21,11.63,2.86,23.82-5.45,39.87-2.85-14.94,15.43-57.25,3.5-61.23,29.9,13.77,4.08,25.36-5.82,39.87-5.7-14.7,17.57-57.11,7.44-59.81,37.02,14.12.23,27.06-12.71,45.56-12.82-11.4,20.88-53.32,11.23-56.95,39.87,12.74-.68,24.99-13.84,41.29-15.66,2.47,7.76-12.46,11.19-21.36,15.66-9.59,4.82-19.67,10.65-27.05,14.24-.97,5.67-3.6,9.69-2.85,17.09,16.65-4.23,24.88-16.89,41.29-21.36,1.46,17.23-36.28,20.81-46.99,37.02-3.32,5.02-4.12,12.82-2.85,19.93,17.16-6.1,22.45-24.06,42.72-27.05-7.84,26.84-52.11,24.74-45.56,61.23,16.93-8.22,21.87-28.44,42.72-32.75-5.97,28-51.42,30.8-41.29,65.5,12.23-13.88,22.12-30.09,39.87-38.45-8.12,22.26-24.86,35.9-39.87,51.26-.02,9.98,1.68,18.25,4.27,25.63,13.38-15.57,19.47-38.43,37.02-49.83-2.56,32.94-41.11,48.16-28.48,82.59,15.33-15.05,17.27-43.49,35.6-55.54-1.02,33.87-40.89,56.33-22.78,86.86,9.27-20.16,14.03-44.83,27.05-61.23,7.28,32.52-37.12,63.96-11.39,88.28,6.77-21.71,9.6-47.35,21.36-64.08,8.56,32.07-29.64,71.7-2.85,91.13,4.7-23.3,5.33-50.69,12.82-71.2,14.71,34.68-23.08,84.44,9.97,98.25,3.33-22.14-5.76-59.35,8.55-74.05,11.79,31.53-15.17,90.05,15.66,98.25,1.41-21.83-3.45-49.71-1.42-76.89,11.65,21.1,12.71,52.79,12.81,85.44,6.1,6.71,13.73,11.9,22.78,15.66-1.18-25.45-16.54-48.92-14.24-82.59,8.08,16.58,19.75,47.76,22.78,71.2.96,7.43-2.13,11.36,1.43,17.09,4.57,7.38,14.47,7.38,21.36,11.39-4.03-22.16-22.43-49.63-19.94-78.32,16.5,21,24.39,50.6,31.33,81.17,4.4,6.52,13.7,8.13,22.78,9.97-6.37-26.38-22.82-42.68-22.78-75.47,17.4,21.04,26.49,50.4,35.6,79.74,48.53,13.71,125.74,14.08,166.6-7.12,5.28-30.79,15.15-57,28.48-79.74,2.16,28.74-11.39,54.1-19.93,76.89,8.41,1.43,19.5-4.59,25.63-9.97,3.04-34.45,12.51-62.48,24.21-88.28,2.73,30.26-9.11,58.28-17.09,82.59,7.73,3.48,14.32-5.28,21.36-7.12,5.23-31.32,7.17-65.93,17.09-92.56,5.81,30.97-4.4,58.25-8.55,84.01,12.32-2.87,19.64-10.74,25.63-19.94-4.29-24.04-7.19-62.88,4.27-82.59,6.15,23.61,2.13,53.48,2.85,76.89,9.92-2.42,13.53-11.15,19.93-17.09-2.83-27.65-11.4-56.8-7.12-86.86,13.33,16.56,8.89,50.91,12.81,76.89,34.23-18.23-5.31-59.81,1.43-98.25,10.57,18.85,15.73,43.13,18.51,69.78,9.84-1.55,10.82-11.97,15.66-18.51-8.62-24.13-20.89-44.61-25.63-72.62,17.16,13.69,17.94,43.76,31.32,61.23,18.84-29.97-21.09-52.02-21.36-85.44,15.98,13.92,20.16,39.65,32.75,56.96,20.37-25.05-27.24-52.95-27.05-84.01,18.2,11.7,22.45,37.35,35.6,54.11,7.06-4.76,8.5-18.12,7.12-24.21-1.4-6.16-8.37-9.1-12.82-14.24-11.24-13.01-21.32-29.43-25.63-42.72,16.68,10.85,26.47,28.59,38.45,44.14,18.69-33.33-27.72-40.92-35.6-65.5,3.02-2.02,11.68,3.89,15.66,7.12,8.68,7.05,15.85,19.18,24.21,24.21,10.95-34.72-27.61-30.88-31.33-55.54,12.54,4.07,18.39,14.84,28.48,21.36,9.39-37.4-34.96-33.39-45.57-55.54,17.85,3.04,26.56,15.21,41.29,21.36,5.22-34.65-40.34-30.85-52.68-52.68,17.76,3.13,27.32,14.45,42.72,19.93,3.94-29.58-37.78-25.82-52.68-41.29,16.33-3.5,29.26,8.7,42.72,12.82.49-31.82-41.25-21.41-55.54-38.45,16.69-.08,25.87,7.35,39.87,9.97,2.89-26.2-37.06-21.74-55.53-31.33,7.75-6.07,25.24,2.09,35.6,2.85-1.8-27.16-39.62-18.29-61.23-25.63,8.63-8.15,25.49-1.38,38.45-1.43-.43-19.04-33.26-18-56.96-18.51,3.76-8.58,22.29-2.39,32.75-4.27-7.05-23.15-36.9-10.59-59.81-14.24,4.94-7.4,21.55-3.13,32.75-4.27-13.05-21.12-47.24-21.11-66.93-35.6,24.33-4.86,35.8,15.47,55.54,19.93-2.58-12.13-12.87-16.56-14.24-29.9,19.78,9.65,17.07,41.79,41.3,46.99,2.49-10.59-9.31-19.15-8.55-32.75,16.05,15.27,14.21,48.44,38.44,55.53-1.76-13.42-8.26-22.11-8.54-37.02,17.33,14,9.65,53,32.75,61.23,1-16.18-5.37-25-4.27-41.29,16.03,13.88,4.6,55.21,24.21,65.5.23-17.17-.86-27.28,0-42.72,14.46,12.6-1.78,55.9,15.66,65.5,5.19-11.43.03-33.2,9.97-39.87,6.47,27.18-14.23,57.85,7.12,72.62,6.47-11.57-.54-36.62,14.24-39.87,2.58,27.18-18.29,52.75-1.43,72.62,9.26-11.62,6.54-35.23,18.51-44.14,4.44,33.93-24.49,54.84-8.54,82.59,10.52-13.69,13.88-34.54,24.21-48.41,5.55,35.99-31.8,51.53-19.94,89.71,12.87-12.28,18.64-31.67,31.33-44.14,0,32.76-35.01,42.83-31.33,84.01,14.96-12.57,23.18-31.88,37.02-45.56.17,34.83-38.66,42.97-41.29,79.74,15.01-8.25,28.74-30.11,45.56-41.29-3.15,31.5-43.6,38.04-51.26,69.78,16.29-7.92,32.53-28.22,52.68-37.02-14.86,23.11-36.32,39.62-59.81,54.11-.64,4.59-2.73,7.71-2.85,12.82,17.16-6.11,35-23.86,55.54-31.33Z"/>
  <path class="cls-1" d="M180.87,400.06h68.35c17.1,63.46,65.51,111.86,138.12,118.19,94.29,8.22,155.26-45.34,175.14-118.19h69.77c-23.93,108.2-106.12,195.84-244.91,186.54-111.26-7.46-185.12-82.64-206.47-182.26.3-2.44-2.43-3.69,0-4.28ZM240.68,428.54c1.69-7.86-4.54-7.8-2.85-15.67-4.03,1.18-3.69-2-7.12-1.42,1.24,7.78.38,17.65,9.97,17.09ZM603.78,422.84c-6.65-7.12-19.74-7.79-31.33-9.97,3.29,9.54,21.77,11.44,31.33,9.97ZM203.65,429.96c3.15,4.45,14.38.82,17.09,5.7-.28,5.41-5.99,5.41-5.7,11.4,4.15,6.29,6.35,14.53,12.82,18.51,5.16,1.8,15.42-3.53,15.66-11.39-7.53-1.83-9.06,2.33-11.39,5.7-1.69-6.85-6.39-10.7-8.55-17.09,3.13-2.09,6.67-3.77,5.7-9.97-4.33-4.21-14.34-2.75-18.51-7.12,1.17-5.95,9.55-4.69,11.39-9.97-8.8,2.12-18.61,3.22-18.51,14.24ZM588.12,431.38c-8.08-3.74-12.45-9.88-21.36-2.84,3.66,7.74,18.6,4.18,24.21,9.97-2.1,5.02-7.47,6.77-15.66,5.7-1.11,7.75,2.18,11.1,4.27,15.66-2.84,1.43-2.25,6.3-7.12,5.7-8.8-1.64-12.72-8.16-21.36-9.96.97,11.37,14.94,9.75,19.94,17.09-4.41,5.09-7.71,11.28-12.82,15.67-17.35-9.22-27.72,19.34-38.45,21.36,1.1-8.05,11.36-15.1,4.28-22.78-5.23,7.3-11.59,20.43-7.12,32.75,16.63-3.3,21.97-25.48,37.02-25.63-12.3,10.01-21.42,23.2-37.02,29.9-3.89-.56-6.07-6.58-9.97-2.85-4.96,3.11-2.59,13.55-5.7,18.51-7.25.14-5.43-8.81-11.39-9.97,2.02,8.9,5.99,15.85,14.24,18.51,6.96-1.59,2.1-15,5.7-19.94,4.28.94,4.97,5.47,11.39,4.27,21.97-15.05,41.28-32.76,56.96-54.11.1-2.48-.32-4.43-1.43-5.7,5.52-.17,7.2-4.19,9.97-7.12,1.03-4.35-1.45-5.19-1.43-8.54,12.77-2.35,9.39-18.47,19.94-25.63-5.6-6.69-9.76-1.88-17.09,0ZM215.05,468.41h5.7c1.23-8.35-5.61-8.63-5.7-15.66h-5.7c-1.23,8.35,5.61,8.63,5.7,15.66ZM240.68,485.49c2.53-5.02,12.22-9.02,9.97-14.24-7.31-1.37-6.14,4.94-12.81,7.12-.61-2.71-3.07-3.57-2.85-7.12h-7.12c1.32,7.7,4.97,13.07,12.82,14.24ZM259.19,494.04c2.31-2.44,4.31-5.19,4.27-9.97-1.59-.3-2.21-1.58-2.84-2.84-12.42-1.07-16.77,7.85-14.24,14.24-7.47-.13-9.26-5.93-14.24-8.54,1.69,10.42,7.76,18.3,19.93,14.24,20.32,17.65,40.37,35.58,66.93,47,8-1.99,7.62-19.88,14.24-18.51-1.15,6.95-7.52,16.17-4.28,22.78,7.88-6.84,8.96-20.46,12.82-31.33-4.47-.67-3.76,3.83-7.12,4.27-1.26-2.53-3.97-3.62-2.84-8.54-3.54-.22-4.41,2.24-7.12,2.84-.14,8.4-1.44,15.66-5.7,19.94-7.56-2.51,1.32-6.19-4.27-8.55-1.21,2.12-3.59,3.07-7.12,2.85-2.86-2.9.63-2.79,1.43-5.7-7.32,2.25-14.2-.16-8.55-5.7-8.03.43-14.9-.28-15.66-7.12,3.11.26,4.53-1.16,4.27-4.27-2.28-7.06-10.01-12.87-17.09-7.12-1.88,3.56,5.63,4.46,1.42,5.7-3.9-6.07-10.34-9.59-14.24-15.66ZM484.17,522.52c8.98-.52,14.71-4.29,17.09-11.39-8.92.57-16.01,2.97-17.09,11.39ZM472.78,526.79c-3.79-.48-4.99-3.55-8.54-4.27-1.6,12.52,7.43,14.4,8.54,24.21-2.69,1.58-6.73,1.81-9.97,2.84,5.85-10.2-14.93-10.66-15.66-1.42-2.25,5.57,3.7,2.94,4.27,5.7-11.51,2.99-25.46,4.67-31.33-4.28-1.98,7.88.48,9.43,4.27,14.24-2.51,5.55-8.89,7.24-14.24,9.97,3.69,1.53,6.98,3.46,12.82,2.85,3.46-2.71,4.04-8.3,7.12-11.39,22.8-.17,31.25-7.35,48.41-11.39,2.82-10.92-7.39-16.3-2.84-24.21,3.27,7.65,5.53,16.3,12.82,19.93-1.09-13.62-6.64-22.79-14.24-29.9-.78,2.07,1.66,7.36-1.43,7.12ZM346.05,529.64c3.96,5.05,14.89,10.48,19.93,2.84-4.32-5.72-9.92-1.4-14.24-7.12-.39,2.93-5.31,1.34-5.7,4.28ZM341.77,562.39c10.24.75,9.09-9.9,18.51-9.96-.82,4.62.97,6.62,1.43,9.96,18.87,5.37,29.68,2.21,49.84,4.27,2.59-7.18,4.3-17.56-4.28-19.93-3.91,5.62.31,7.74-1.43,11.39-5.33.12-11.52,1.08-9.97-5.7-5.46,6.51-18.85,3.99-28.48,2.84-2.37-1.9-.48-8.07-2.85-9.97-11.35-1.86-10.75,8.24-19.93,8.55-5.79-4.11,5.85-13.38-1.43-14.24-1.83,6.27-7.69,17.08-1.43,22.78ZM378.8,573.78c4.88,4.86,10.09.54,15.66,4.28.3-1.6,1.58-2.22,2.85-2.85,1.04-3.89-2.83-2.87-2.85-5.7-6.85,4.86-11.32-3.88-15.66,4.27ZM398.74,572.35c.17,3.63,2.07,5.52,5.7,5.7,2.03-.34,2.4-2.35,4.27-2.85-.21-6.83-6.39-5.93-9.97-2.85Z"/>
</svg>